<svg width="18" height="19" viewBox="0 0 18 19" fill="none" xmlns="http://www.w3.org/2000/svg">
  <path fill-rule="evenodd" clip-rule="evenodd" d="M14.554 12.455C15.0681 12.4543 15.5659 12.2753 15.9628 11.9485C16.3596 11.6217 16.6307 11.1674 16.73 10.663L17.845 5.09003C17.9096 4.76705 17.9018 4.43374 17.8222 4.11414C17.7425 3.79453 17.5931 3.49657 17.3845 3.24164C17.176 2.9867 16.9135 2.78114 16.616 2.63977C16.3185 2.4984 15.9934 2.42471 15.664 2.42401H4.56402V1.30902C4.56375 1.01417 4.44672 0.731416 4.23851 0.522644C4.0303 0.313872 3.74787 0.196065 3.45302 0.195007H1.23803C0.948222 0.203689 0.673195 0.324897 0.471272 0.532959C0.26935 0.741021 0.156423 1.01957 0.156423 1.30951C0.156423 1.59944 0.26935 1.878 0.471272 2.08606C0.673195 2.29412 0.948222 2.41533 1.23803 2.42401H2.35302V13.569C1.91174 13.5671 1.4798 13.6961 1.11193 13.9398C0.744058 14.1835 0.456822 14.5309 0.28658 14.938C0.116338 15.3452 0.0707552 15.7936 0.155629 16.2267C0.240503 16.6597 0.451996 17.0579 0.763326 17.3706C1.07465 17.6833 1.47181 17.8966 1.90447 17.9834C2.33712 18.0702 2.78581 18.0267 3.19368 17.8583C3.60156 17.6899 3.9503 17.4042 4.19567 17.0374C4.44104 16.6706 4.57201 16.2393 4.57201 15.798H12.338C12.3398 16.2367 12.4715 16.665 12.7165 17.0289C12.9615 17.3928 13.3089 17.6759 13.7147 17.8426C14.1205 18.0092 14.5666 18.0519 14.9966 17.9653C15.4266 17.8786 15.8214 17.6664 16.1309 17.3556C16.4405 17.0448 16.6511 16.6492 16.736 16.2188C16.8209 15.7884 16.7764 15.3425 16.6081 14.9374C16.4399 14.5323 16.1553 14.186 15.7905 13.9425C15.4256 13.699 14.9967 13.569 14.558 13.569H4.57103V12.455H14.554ZM15.669 4.65503L14.554 10.228H4.56701V4.65503H15.667H15.669Z" fill="#33A0FF" />
</svg>