<svg width="19" height="16" viewBox="0 0 19 16" fill="none" xmlns="http://www.w3.org/2000/svg">
  <path fill-rule="evenodd" clip-rule="evenodd" d="M12.9359 2.53803C13.5797 2.5387 14.2097 2.72518 14.7501 3.07514C15.2905 3.4251 15.7184 3.92365 15.9824 4.51087C16.2464 5.0981 16.3353 5.74907 16.2383 6.38557C16.1414 7.02206 15.8628 7.61701 15.4359 8.09901C14.8229 8.79001 9.59594 13.6831 9.59594 13.6831C9.59594 13.6831 4.35792 8.79002 3.74492 8.08802C3.20373 7.48056 2.90601 6.69462 2.90893 5.88105C2.92409 5.00431 3.283 4.16856 3.90838 3.5539C4.53375 2.93925 5.37556 2.59486 6.25243 2.59486C7.1293 2.59486 7.97105 2.93925 8.59643 3.5539C9.2218 4.16856 9.58077 5.00431 9.59594 5.88105C9.59594 5.44191 9.6824 5.00704 9.85045 4.60133C10.0185 4.19561 10.2648 3.82701 10.5754 3.51649C10.8859 3.20597 11.2545 2.95963 11.6602 2.79157C12.0659 2.62352 12.5008 2.53706 12.9399 2.53706L12.9359 2.53803ZM12.9399 0.308053C11.7336 0.305948 10.5596 0.697408 9.59594 1.42304C8.49198 0.603659 7.12407 0.221234 5.75524 0.349313C4.3864 0.477391 3.1132 1.10693 2.18041 2.11689C1.24762 3.12685 0.721063 4.44594 0.701955 5.82063C0.682847 7.19531 1.17253 8.52854 2.07689 9.56403C2.70289 10.282 6.82589 14.1421 8.07689 15.3081C8.48981 15.6942 9.03407 15.909 9.59942 15.909C10.1648 15.909 10.709 15.6942 11.1219 15.3081C12.3659 14.1431 16.4719 10.2931 17.1059 9.57606C17.8172 8.77252 18.2814 7.7807 18.4427 6.71974C18.604 5.65877 18.4556 4.5738 18.0152 3.59516C17.5749 2.61652 16.8613 1.78582 15.9603 1.20289C15.0592 0.619961 14.0091 0.309578 12.9359 0.309029L12.9399 0.308053Z" fill="#33A0FF" />
</svg>